#!OML:ASF E:\I on waltz\AllaLogoMonkeySwing\Project 1\Capture day 1\Session 1\Subject1.ASF
:FULLY-SPECIFIED
:DEGREES
910
root 0.703549 17.9427 1.8143 545.204 186.188 180.239
lowerback 15.7456 -0.987524 -3.00493
upperback 1.70447 -1.66917 2.12498
thorax -6.85942 -0.702444 4.33307
lowerneck -10.4957 5.1368 3.02735
upperneck 4.58766 6.90748 -5.99117
head 3.75282 3.2213 -2.08341
rclavicle -3.16068e-014 -6.36111e-015
rhumerus -36.9629 -9.69088 -78.5097
rradius 42.0226
rwrist -6.31941
rhand -8.37925 -37.925
rfingers 7.12502
rthumb 17.5439 -67.1534
lclavicle -3.16068e-014 -6.36111e-015
lhumerus -43.6449 4.12028 83.0816
lradius 54.4477
lwrist 4.76177
lhand -8.82197 -11.1601
lfingers 7.12502
lthumb 17.1178 18.1058
rfemur -12.1827 -0.379083 15.9906
rtibia 21.6696
rfoot -13.4828 -1.59791
rtoes 11.8552
lfemur -5.52707 4.41591 -18.0367
ltibia 15.8358
lfoot -15.5672 9.38693
ltoes -22.6788
911
root 0.716055 17.9401 1.78876 545.696 186.675 180.263
lowerback 16.2737 -1.07891 -3.22139
upperback 1.81727 -1.84148 2.10567
thorax -7.00655 -0.778111 4.49009
lowerneck -10.5114 5.48418 3.29325
upperneck 4.10698 7.32631 -6.16916
head 3.63102 3.43287 -2.16189
rclavicle 1.26228e-014 -3.06128e-014
rhumerus -37.6145 -8.74731 -78.9689
rradius 44.2829
rwrist -7.28721
rhand -8.44433 -38.1025
rfingers 7.12502
rthumb 17.4813 -67.3365
lclavicle 1.26228e-014 -3.06128e-014
lhumerus -44.8526 2.5708 83.8532
lradius 56.574
lwrist 5.00594
lhand -9.4737 -11.1888
lfingers 7.12502
lthumb 16.4904 18.1304
rfemur -13.151 -0.306053 15.9487
rtibia 22.1104
rfoot -13.4013 -1.32291
rtoes 12.062
lfemur -6.23308 5.34971 -18.0989
ltibia 16.2691
lfoot -15.7503 10.1948
ltoes -21.8301
912
root 0.73164 17.9345 1.75693 546.307 187.211 180.257
lowerback 16.8267 -1.14811 -3.39824
upperback 1.92415 -1.98049 2.0816
thorax -7.17644 -0.837573 4.61554
lowerneck -10.479 5.81851 3.48018
upperneck 3.44142 7.7302 -6.36468
head 3.43382 3.63848 -2.23517
rclavicle 1.82882e-014 -1.43125e-014
rhumerus -38.2805 -7.87526 -79.4018
rradius 46.5753
rwrist -8.06208
rhand -8.44354 -38.0769
rfingers 7.12502
rthumb 17.482 -67.3108
lclavicle 1.82882e-014 -1.43125e-014
lhumerus -46.3387 0.850572 84.7377
lradius 59.1735
lwrist 5.0085
lhand -10.2755 -11.4597
lfingers 7.12502
lthumb 15.7183 17.9219
rfemur -14.383 -0.158608 15.9392
rtibia 22.7269
rfoot -13.3917 -1.07299
rtoes 12.5135
lfemur -7.21578 6.35487 -18.1375
ltibia 16.8239
lfoot -15.9424 10.3419
ltoes -20.7847
913
root 0.751168 17.9247 1.71723 547.057 187.73 180.237
lowerback 17.4121 -1.21118 -3.51288
upperback 2.01319 -2.10616 2.01063
thorax -7.38712 -0.890897 4.65549
lowerneck -10.4919 6.09218 3.72976
upperneck 2.69459 8.03939 -6.57881
head 3.21949 3.79789 -2.3332
rclavicle 4.06018e-014 -2.04748e-014
rhumerus -39.0619 -7.09995 -79.8639
rradius 49.1036
rwrist -8.47447
rhand -8.43676 -38.0911
rfingers 7.12502
rthumb 17.4886 -67.3244
lclavicle 4.06018e-014 -2.04748e-014
lhumerus -48.0305 -1.13811 85.6667
lradius 62.1318
lwrist 5.09431
lhand -11.3511 -11.9292
lfingers 7.12502
lthumb 14.6822 17.5309
rfemur -15.9268 -0.157085 15.9474
rtibia 23.6031
rfoot -13.462 -0.82483
rtoes 12.2911
lfemur -8.55469 7.30877 -18.214
ltibia 17.6131
lfoot -15.7164 10.1442
ltoes -21.213
914
root 0.771694 17.9088 1.67208 547.835 188.154 180.227
lowerback 18.1358 -1.29284 -3.67393
upperback 2.0876 -2.27148 1.93392
thorax -7.68243 -0.958358 4.73379
lowerneck -10.5813 6.35554 3.87104
upperneck 1.97462 8.33438 -6.58571
head 3.0121 3.95448 -2.34131
rclavicle -2.78299e-014 7.65321e-015
rhumerus -39.9879 -6.3226 -80.3273
rradius 51.853
rwrist -8.45101
rhand -8.6239 -38.0073
rfingers 7.12502
rthumb 17.3084 -67.2566
lclavicle -2.78299e-014 7.65321e-015
lhumerus -49.8489 -3.08806 86.582
lradius 65.1655
lwrist 5.0207
lhand -12.3713 -12.4921
lfingers 7.12502
lthumb 13.6992 17.037
rfemur -17.5607 -0.31808 15.9597
rtibia 24.5739
rfoot -13.583 -0.636165
rtoes 11.9154
lfemur -10.1718 8.34379 -18.3484
ltibia 18.8022
lfoot -15.5864 9.85187
ltoes -22.8052
915
root 0.795549 17.8854 1.61765 548.673 188.505 180.16
lowerback 18.9787 -1.39554 -3.82185
upperback 2.18796 -2.46459 1.89488
thorax -8.00835 -1.03738 4.8604
lowerneck -10.7091 6.652 3.97544
upperneck 1.13648 8.67489 -6.64995
head 2.77704 4.13192 -2.35975
rclavicle -5.14355e-015 1.89839e-014
rhumerus -40.9528 -5.52446 -80.7814
rradius 54.7564
rwrist -8.2179
rhand -8.98809 -37.7231
rfingers 7.12502
rthumb 16.9579 -67.0028
lclavicle -5.14355e-015 1.89839e-014
lhumerus -51.6966 -4.82048 87.467
lradius 68.3183
lwrist 4.8287
lhand -13.0412 -12.7963
lfingers 7.12502
lthumb 13.0535 16.7753
rfemur -19.3516 -0.642498 16.0653
rtibia 25.6778
rfoot -13.7705 -0.456704
rtoes 11.6078
lfemur -12.1506 9.48884 -18.4821
ltibia 20.5125
lfoot -15.9376 9.69127
ltoes -24.0526
916
root 0.82147 17.8517 1.54884 549.573 188.83 179.913
lowerback 19.9341 -1.47508 -3.84323
upperback 2.37608 -2.59953 1.91829
thorax -8.30514 -1.09319 4.97485
lowerneck -10.7657 7.00283 4.23935
upperneck -0.00904292 9.07237 -7.10703
head 2.46505 4.33221 -2.54056
rclavicle 6.10331e-015 -1.63376e-015
rhumerus -41.8124 -4.81968 -81.181
rradius 57.7901
rwrist -8.04075
rhand -9.39877 -37.5459
rfingers 7.12502
rthumb 16.5626 -66.8591
lclavicle 6.10331e-015 -1.63376e-015
lhumerus -53.3576 -6.55772 88.3641
lradius 71.5538
lwrist 5.08016
lhand -14.727 -13.903
lfingers 7.12502
lthumb 11.4281 15.7656
rfemur -21.3984 -0.990818 16.4001
rtibia 27.0776
rfoot -14.0468 -0.265163
rtoes 11.2949
lfemur -14.4651 10.64 -18.4645
ltibia 22.6787
lfoot -16.4536 9.83251
ltoes -24.3567
